# xmcd
#
# Track frame offsets:
#	150
#	19372
#	39597
#	61157
#	77545
#	97002
#	112892
#	131085
#	156034
#	177955
#	195215
#	214952
#	230890
#
# Disc length: 3344 seconds
# Revision: 0
# Processed by: cddbd v1.5.2PL0 Copyright (c) Steve Scherf et al.
# Submitted via: dBpowerAMP V12.0
#
DISCID=ab0d0e0d
DTITLE=Gary Barlow - Open Road (Argentina Edition)
DYEAR=1997
DGENRE=Pop
TTITLE0=I Love Wont Wait
TTITLE1=So Help Me Girl
TTITLE2=My Commitment
TTITLE3=Hang On In There Baby
TTITLE4=Are You Ready Now
TTITLE5=Everything I Ever Wanted
TTITLE6=I Fall So Deep
TTITLE7=Lay Down For Love
TTITLE8=Forever Love
TTITLE9=Never Knew
TTITLE10=Open Road
TTITLE11=Always
TTITLE12=Ayudame
EXTD=
EXTT0=
EXTT1=
EXTT2=
EXTT3=
EXTT4=
EXTT5=
EXTT6=
EXTT7=
EXTT8=
EXTT9=
EXTT10=
EXTT11=
EXTT12=
PLAYORDER=
